PathFileType	4	(X/Y/Z)	C:/Users/opensim2020/Desktop/walking_exp_matlab/subject01_walking13_straight_02.trc	
DataRate	CameraRate	NumFrames	NumMarkers	Units	OrigDataRate	OrigDataStartFrame	OrigNumFrames	
100.00	100.00	8	42	mm	100.00	1218	172	
Frame#	Time	LFHD			RFHD			LBHD			RBHD			C7			T10			CLAV			STRN			RBAK			LSHO			LUPA			LELB			LFRM			LWRA			LWRB			LFIN			RSHO			RUPA			RELB			RFRM			RWRA			RWRB			RFIN			LASI			RASI			LPSI			RPSI			LTHI			LKNE			LTIB			LANK			LHEE			LTOE			RTHI			RKNE			RTIB			RANK			RHEE			RTOE			*39			*40			*41			
		X1	Y1	Z1	X2	Y2	Z2	X3	Y3	Z3	X4	Y4	Z4	X5	Y5	Z5	X6	Y6	Z6	X7	Y7	Z7	X8	Y8	Z8	X9	Y9	Z9	X10	Y10	Z10	X11	Y11	Z11	X12	Y12	Z12	X13	Y13	Z13	X14	Y14	Z14	X15	Y15	Z15	X16	Y16	Z16	X17	Y17	Z17	X18	Y18	Z18	X19	Y19	Z19	X20	Y20	Z20	X21	Y21	Z21	X22	Y22	Z22	X23	Y23	Z23	X24	Y24	Z24	X25	Y25	Z25	X26	Y26	Z26	X27	Y27	Z27	X28	Y28	Z28	X29	Y29	Z29	X30	Y30	Z30	X31	Y31	Z31	X32	Y32	Z32	X33	Y33	Z33	X34	Y34	Z34	X35	Y35	Z35	X36	Y36	Z36	X37	Y37	Z37	X38	Y38	Z38	X39	Y39	Z39	X40	Y40	Z40	X41	Y41	Z41	X42	Y42	Z42	

130	1.290	1554.15344	-411.93231	1653.07080	1439.81787	-409.16574	1654.97815	1565.14343	-291.48010	1624.48889	1444.23523	-285.02228	1625.78101	1519.47192	-223.80379	1425.75635	1498.06995	-184.55948	1130.97314	1510.22949	-366.03271	1354.11096	1513.67017	-408.87570	1201.12012	1438.93115	-165.85373	1230.15894	1673.34705	-309.41467	1385.60303	1768.61438	-292.10843	1210.01440	1791.33569	-306.10214	1057.82617	1809.04236	-408.64941	997.30505	1782.32654	-541.96051	967.96271	1807.65027	-507.08383	926.94440	1822.84009	-586.57092	913.87469	1361.09045	-297.24106	1386.39563	1262.31372	-206.71347	1199.57837	1252.65747	-187.87918	1077.96887	1217.99792	-196.38255	958.53821	1230.37244	-260.95642	833.02356	1194.49841	-215.57869	839.13818	1183.98914	-249.90703	764.07086	1613.81946	-353.94223	927.39966	1396.66040	-373.83377	930.13599	1539.82312	-173.66005	937.58008	1396.34705	-190.83144	932.01270	1653.68176	-266.29037	598.59833	1634.11731	-229.53152	466.37811	1630.66565	-136.02348	299.03973	1569.57898	-66.23203	92.40092	1512.62366	-21.24596	74.28457	1584.71716	-203.07655	31.78230	1341.30383	-430.33270	609.43439	1373.39966	-488.44296	465.46744	1368.60645	-469.15750	290.75723	1419.95520	-492.21869	83.64307	1475.17371	-455.75848	37.84314	1415.57715	-634.06348	70.31989	1463.36011	-404.81784	1689.60742	-3101.90894	1973.11707	1023.93347	-3140.80957	2012.55872	1022.14850 
131	1.300	1552.09668	-424.56308	1652.01660	1437.77405	-421.24231	1653.66309	1563.75977	-304.15366	1623.50989	1442.78845	-297.17413	1624.47424	1518.52039	-236.19641	1424.53687	1497.21790	-197.19522	1129.72656	1509.25342	-378.68536	1353.12219	1513.12793	-421.40063	1199.96729	1438.49597	-178.44995	1228.52454	1672.32837	-322.18887	1385.01514	1768.66260	-305.94409	1210.02905	1792.53564	-320.94833	1058.24072	1809.88477	-425.10275	1000.45355	1782.51880	-558.90533	974.50824	1808.30505	-525.38647	932.73071	1823.34473	-605.25464	922.29211	1360.10413	-309.37665	1384.88330	1262.32043	-217.48312	1198.20715	1252.67371	-198.21127	1076.91333	1217.60596	-204.87601	957.61719	1229.10486	-267.15634	830.89478	1193.59631	-222.00990	837.91718	1182.20532	-255.48775	762.62219	1614.28662	-366.07538	926.44434	1397.24585	-387.74811	928.72333	1538.61536	-186.41161	936.87628	1395.31909	-204.72171	931.02673	1654.50952	-274.52390	598.49695	1634.67920	-236.02797	466.68198	1631.39868	-140.57942	300.49841	1570.40442	-67.44717	94.83332	1513.63013	-22.08105	77.72147	1584.69836	-203.22037	31.47187	1340.79382	-438.67868	605.86066	1374.78174	-500.75986	464.23984	1369.54517	-489.81732	289.39578	1420.65613	-524.42120	83.57999	1475.47278	-490.36914	35.62239	1416.67163	-666.98181	77.85820	1461.26184	-417.10144	1688.34924	-3101.96558	1972.95728	1023.92603	-3140.74902	2012.51929	1022.13226 
132	1.310	1549.98914	-437.15125	1650.95251	1435.70093	-433.30771	1652.37158	1562.20691	-316.82947	1622.47205	1441.28601	-309.38388	1623.08484	1517.44019	-248.70627	1423.27637	1496.33667	-209.91080	1128.40210	1508.07764	-391.17719	1351.95386	1512.53003	-434.08755	1198.92432	1437.88123	-191.05353	1226.84766	1671.17053	-334.92477	1384.39465	1768.49780	-319.64539	1210.01196	1793.60962	-335.62930	1058.63306	1810.55981	-441.21613	1003.33112	1782.61475	-575.31158	980.59967	1808.85852	-543.14215	938.17346	1823.50000	-623.35815	929.97015	1359.00159	-321.67075	1383.25427	1262.23145	-228.37178	1196.78149	1252.65894	-208.64888	1075.77405	1217.20667	-213.63347	956.54291	1227.63086	-274.25803	828.93512	1192.68677	-228.57541	836.90594	1181.28760	-260.29013	760.77942	1614.63953	-378.40741	925.49109	1397.85974	-401.77155	927.27612	1537.35840	-199.39235	936.00604	1394.32886	-218.81439	930.03979	1655.23938	-283.32401	598.33325	1635.40417	-243.63263	466.76215	1632.18445	-145.64616	301.99100	1571.30896	-68.99470	97.37635	1514.70544	-23.24920	81.44679	1584.90723	-203.32512	31.54538	1339.52795	-446.78589	602.21344	1375.98389	-513.81299	463.23465	1370.52625	-509.67636	288.31195	1421.48730	-553.49219	84.12547	1476.51538	-521.60846	34.09122	1417.04980	-696.09473	84.73219	1459.07397	-429.26044	1687.07495	-3102.03149	1973.00098	1023.91254	-3140.67773	2012.47205	1022.03162 
133	1.320	1547.78186	-449.68362	1649.83704	1433.48694	-445.42920	1651.01904	1560.55237	-329.46741	1621.34119	1439.66870	-321.47021	1621.72437	1516.26563	-261.21652	1422.07251	1495.32483	-222.89357	1126.92236	1506.77100	-403.63513	1350.66785	1511.80640	-446.74106	1197.80151	1437.00818	-203.73386	1225.17493	1669.85107	-347.69791	1383.72522	1768.19885	-333.23898	1209.93250	1794.51880	-350.18796	1058.99512	1811.11206	-456.95987	1005.96899	1782.49512	-591.24902	986.13531	1809.19983	-560.33368	943.06213	1823.52515	-640.78174	937.23523	1357.72839	-333.95135	1381.55029	1262.01038	-239.42120	1195.30164	1252.65674	-219.28741	1074.46521	1216.75684	-222.60674	955.49469	1226.21924	-281.89023	827.13422	1192.01416	-235.78818	835.51648	1180.12390	-266.38806	759.05017	1615.00220	-390.96133	924.61322	1398.49829	-415.91022	925.66943	1536.18079	-212.49042	935.02228	1393.10486	-233.03848	928.90881	1655.91443	-292.60294	598.28290	1636.22437	-251.90582	466.72647	1633.08081	-151.12871	303.53082	1572.32361	-70.71535	100.22567	1515.86792	-24.55054	85.42790	1585.00635	-203.58543	31.43736	1338.25024	-455.22623	598.92786	1376.89441	-526.40460	462.07983	1371.36499	-528.49310	287.56982	1422.90100	-579.65210	85.11694	1478.12463	-549.78247	33.81413	1417.53577	-721.98181	90.40585	1456.71228	-441.37933	1685.70068	-3102.00171	1973.04395	1023.44696	-3140.64233	2012.58655	1022.00000 
134	1.330	1545.54395	-462.19745	1648.70276	1431.22351	-457.58023	1649.68323	1558.74182	-342.04166	1620.14453	1437.91602	-333.61087	1620.33240	1514.75928	-273.75162	1420.62354	1494.34668	-235.95613	1125.38318	1505.38818	-416.32553	1349.51318	1510.96448	-459.54962	1196.62317	1435.93372	-216.51718	1223.48352	1668.39075	-360.41687	1383.02966	1767.71777	-346.68488	1209.89795	1795.27563	-364.54248	1059.33667	1811.46753	-472.31821	1008.31714	1782.35242	-606.76617	991.25214	1809.53699	-576.95093	947.60663	1823.40735	-657.57550	943.80206	1356.20923	-346.37885	1379.81824	1261.49402	-250.63933	1193.84790	1252.31897	-230.14453	1073.16235	1216.17908	-231.99078	954.28699	1224.74658	-291.14780	825.77368	1191.45972	-243.59668	834.11102	1179.18542	-273.04080	757.32526	1615.35205	-403.69852	923.66272	1399.10168	-430.43307	924.19019	1534.99036	-225.90540	933.91211	1392.06494	-247.25154	927.82227	1656.55029	-302.80853	597.87018	1636.99438	-260.87454	466.54691	1633.99622	-157.14868	305.13550	1573.62219	-72.51088	103.53987	1517.18103	-26.06803	89.91512	1585.28003	-203.70047	31.48160	1337.20837	-465.07361	596.23798	1377.48572	-538.52698	460.93195	1372.44434	-545.33197	286.54489	1424.57214	-602.08771	85.25901	1480.31885	-574.11688	33.57744	1418.37671	-744.54651	94.52814	1454.43372	-453.61670	1684.37048	-3101.97729	1973.22351	1023.55627	-3140.80933	2012.50208	1022.00232 
135	1.340	1543.16199	-474.76917	1647.54871	1428.90466	-469.67700	1648.30627	1556.84668	-354.61005	1618.96667	1436.03406	-345.82730	1618.88892	1513.26794	-286.27206	1419.21875	1493.36743	-249.18468	1123.79089	1503.86108	-429.00223	1348.32397	1509.99976	-472.44394	1195.54358	1434.77930	-229.39238	1221.73743	1666.82043	-373.19724	1382.36450	1767.05835	-360.10672	1209.81189	1795.83167	-378.69608	1059.68115	1811.66833	-487.25223	1010.37823	1781.99219	-621.74408	995.65149	1809.64380	-592.93665	951.63214	1823.14587	-673.70654	949.71375	1354.80371	-358.88220	1378.14587	1260.85669	-262.06503	1192.26001	1251.84497	-241.23799	1071.69019	1215.66113	-241.79384	952.72565	1223.51147	-298.95786	823.77484	1190.78979	-251.55014	832.73334	1178.25476	-280.17038	755.39783	1615.66394	-416.65347	922.75043	1399.65356	-444.85437	922.62018	1533.77637	-239.50639	932.65735	1390.98132	-261.54861	926.59064	1657.21216	-313.70850	597.38379	1637.78247	-270.73291	466.31699	1634.97400	-163.78615	306.91174	1574.74670	-74.84892	106.76988	1518.69629	-27.86881	94.80415	1585.38049	-203.87714	31.28282	1336.71289	-476.74152	594.37988	1377.75391	-550.62268	459.51135	1373.80994	-560.55896	285.14813	1426.48633	-621.19586	84.60182	1482.61609	-594.64764	33.11243	1419.55139	-763.89355	96.42706	1451.98328	-465.85855	1683.01208	-3102.01001	1973.03357	1023.49976	-3140.79321	2012.56982	1022.16510 
136	1.350	1540.75830	-487.23752	1646.39160	1426.46484	-481.82095	1646.92444	1554.83777	-367.21161	1617.83044	1434.04749	-358.09586	1617.51343	1511.62854	-298.73370	1417.79736	1492.40637	-262.54587	1122.17139	1502.18933	-441.73376	1347.08850	1508.94482	-485.51547	1194.47986	1433.63965	-242.32439	1219.96863	1665.10938	-385.95911	1381.70532	1766.21033	-373.39859	1209.70874	1796.10327	-392.55222	1059.98633	1811.76172	-501.78784	1012.23627	1781.62012	-636.30157	999.65839	1809.65002	-608.39386	955.19690	1822.71582	-689.27759	954.83722	1353.09424	-371.42371	1376.27612	1260.02893	-273.53281	1190.75647	1251.05615	-252.64751	1070.19226	1215.01770	-251.83899	951.23016	1223.18152	-306.60742	820.99811	1190.25110	-259.92444	831.14380	1177.50793	-288.04697	753.47137	1615.88782	-429.95981	921.88800	1400.09229	-459.34195	921.10101	1532.72107	-253.26079	931.36554	1389.95801	-275.95343	925.30933	1657.86853	-325.38675	596.79517	1638.63806	-281.38855	465.99557	1636.05591	-170.99806	308.77005	1576.19287	-77.33457	110.59573	1520.57556	-29.92489	100.15852	1585.63892	-204.05997	31.28408	1337.32043	-490.22745	593.22198	1378.11877	-562.80029	457.95529	1375.34692	-574.31445	283.42035	1428.41309	-636.65631	83.27820	1485.02710	-611.24347	32.18244	1421.25391	-780.13184	96.20983	1449.56812	-478.08023	1681.69373	-3102.06396	1973.12268	1023.57336	-3140.73193	2012.56262	1022.08734 
137	1.360	1538.25000	-499.76407	1645.22888	1424.04614	-494.01758	1645.57349	1552.69275	-379.73190	1616.68127	1431.90027	-370.31522	1616.18201	1509.87158	-311.26184	1416.40295	1491.47559	-276.05417	1120.46509	1500.46265	-454.46994	1345.92566	1507.84778	-498.67609	1193.50549	1432.45105	-255.42325	1218.12524	1663.31750	-398.71475	1381.04419	1765.17151	-386.64166	1209.53333	1796.25000	-406.12579	1060.23022	1811.63513	-515.89197	1013.79974	1781.08984	-650.34308	1002.82422	1809.47156	-623.21173	958.24579	1822.24243	-704.18903	959.21692	1351.49463	-383.84265	1374.55664	1259.13171	-285.61325	1188.82227	1250.44556	-264.28186	1068.50562	1214.34802	-262.32339	949.71490	1222.23657	-315.88708	818.93353	1189.66479	-269.69269	829.26190	1176.79749	-296.49716	751.43164	1615.96924	-443.53156	920.81012	1400.36682	-473.80234	919.74878	1531.75537	-267.21317	929.99866	1389.15674	-290.19894	923.98761	1658.46716	-337.81079	595.98041	1639.51367	-292.90778	465.36713	1637.30737	-178.93973	310.60046	1577.84570	-80.35985	114.64021	1522.21484	-32.67482	105.61565	1585.85522	-204.36691	31.25137	1338.59766	-505.44046	592.65546	1378.55945	-574.84326	456.03479	1376.87598	-586.48053	281.31284	1430.42322	-649.68304	81.55318	1487.47046	-624.01569	30.89764	1423.34387	-793.24402	93.48963	1447.01611	-490.31793	1680.35742	-3102.02710	1973.14441	1023.83276	-3140.59497	2012.67798	1022.18475 
